HIERARCHY
ROOT Hips
{
    OFFSET 0.0 0.0 0.0
    CHANNELS 6 Xposition Yposition Zposition Xrotation Yrotation Zrotation
    JOINT Spine
    {
        OFFSET 0.0 0.2528338696016368 0.0
        CHANNELS 3 Xrotation Yrotation Zrotation
        JOINT LeftUpperArm
        {
            OFFSET 0.16392182787062967 0.25457430942836673 0.0
            CHANNELS 3 Xrotation Yrotation Zrotation
            JOINT LeftLowerArm
            {
                OFFSET 0.31454859779432154 0.0 0.0
                CHANNELS 3 Xrotation Yrotation Zrotation
                End Site
                {
                OFFSET 0.06263177808188465 0.0 0.0
                }
            }
        }
        JOINT RightUpperArm
        {
            OFFSET -0.16392182787062967 0.25457430942836673 0.0
            CHANNELS 3 Xrotation Yrotation Zrotation
            JOINT RightLowerArm
            {
                OFFSET -0.31454859779432154 0.0 0.0
                CHANNELS 3 Xrotation Yrotation Zrotation
                End Site
                {
                OFFSET 0.06263177808188465 0.0 0.0
                }
            }
        }
    }
    JOINT LeftUpperLeg
    {
        OFFSET 0.08986168212911391 0.0 0.0
        CHANNELS 3 Xrotation Yrotation Zrotation
    }
    JOINT RightUpperLeg
    {
        OFFSET -0.08986168212911391 0.0 0.0
        CHANNELS 3 Xrotation Yrotation Zrotation
    }
}
MOTION
Frames: 30
Frame Time: 0.03333333333333333
-0.0013673777226311124 -0.0019259780941782868 0.0008224393816044466 137.73173426832875 -69.74149570008738 133.5248990872781 -0.0 -0.0 -0.0 -0.0 -0.0 -0.0 -142.5721749716317 -3.123500616065917 4.072367199234522 -0.0 -0.0 -0.0 -0.0 -0.0 -0.0 -0.0 -0.0 -0.0 -0.0 -0.0 -0.0
-0.0013983023739100227 -0.0019012023597572158 0.0008198114798489492 137.42238491974643 -69.78347466048704 133.75847408663464 -0.0 -0.0 -0.0 -0.0 -0.0 -0.0 -150.50062949761738 -2.598476773530308 4.581545620109461 -0.0 -0.0 -0.0 -0.0 -0.0 -0.0 -0.0 -0.0 -0.0 -0.0 -0.0 -0.0
-0.0014233766838732877 -0.0018652764938306252 0.0008233086902200494 137.0014948152396 -69.75564716993159 134.0622651395577 -0.0 -0.0 -0.0 -0.0 -0.0 -0.0 -155.6804684456204 -2.0181852624457344 4.4557973958892125 -0.0 -0.0 -0.0 -0.0 -0.0 -0.0 -0.0 -0.0 -0.0 -0.0 -0.0 -0.0
-0.0014403050172340013 -0.0018283023234101524 0.0008239443126233756 137.1700026298569 -69.62863371441732 133.82517177736023 -0.0 -0.0 -0.0 -0.0 -0.0 -0.0 -157.70658682435962 -1.7976414337347104 4.375294573903332 -0.0 -0.0 -0.0 -0.0 -0.0 -0.0 -0.0 -0.0 -0.0 -0.0 -0.0 -0.0
-0.0014601362277516703 -0.0018004159413455721 0.0008244048999420505 136.83239769933036 -69.67977042284944 134.05795438741268 -0.0 -0.0 -0.0 -0.0 -0.0 -0.0 -160.3775792952139 -1.5213310849191082 4.258747718641239 -0.0 -0.0 -0.0 -0.0 -0.0 -0.0 -0.0 -0.0 -0.0 -0.0 -0.0 -0.0
-0.0014728119357149427 -0.0017772255011199046 0.0008401636320528962 136.78329533662796 -69.73482177523323 134.03196308293914 -0.0 -0.0 -0.0 -0.0 -0.0 -0.0 -163.12270873330397 -1.3502562423683804 4.4412292718521895 -0.0 -0.0 -0.0 -0.0 -0.0 -0.0 -0.0 -0.0 -0.0 -0.0 -0.0 -0.0
-0.0014897776152422934 -0.0017599640887333422 0.0008740711041989064 137.68583861180835 -70.0860108812161 133.02627118083475 -0.0 -0.0 -0.0 -0.0 -0.0 -0.0 -167.89924440941815 -1.061577321720675 4.938944358140325 -0.0 -0.0 -0.0 -0.0 -0.0 -0.0 -0.0 -0.0 -0.0 -0.0 -0.0 -0.0
-0.0015102342818635668 -0.001749632169502817 0.0008706203879069466 138.21088739991973 -70.05714283485679 132.4731653771004 -0.0 -0.0 -0.0 -0.0 -0.0 -0.0 -165.87110926834427 -1.2144150954946562 4.812779224940509 -0.0 -0.0 -0.0 -0.0 -0.0 -0.0 -0.0 -0.0 -0.0 -0.0 -0.0 -0.0
-0.0015143487757540532 -0.0017381083865145937 0.0008794144339965284 138.77104399180706 -69.95414606969489 131.89346909199182 -0.0 -0.0 -0.0 -0.0 -0.0 -0.0 -160.15728755910803 -1.7118159893335907 4.732158257755912 -0.0 -0.0 -0.0 -0.0 -0.0 -0.0 -0.0 -0.0 -0.0 -0.0 -0.0 -0.0
-0.0015153023660257126 -0.001732878669606196 0.0008886483803697258 139.28817461855112 -69.85330222731073 131.3770409701589 -0.0 -0.0 -0.0 -0.0 -0.0 -0.0 -156.9470302656976 -1.9824912458368587 4.647329808265216 -0.0 -0.0 -0.0 -0.0 -0.0 -0.0 -0.0 -0.0 -0.0 -0.0 -0.0 -0.0
-0.001511590897125555 -0.001726530082956834 0.0008981564834963818 139.86003509634506 -69.68545601175013 130.81892773212618 -0.0 -0.0 -0.0 -0.0 -0.0 -0.0 -157.28778765357546 -1.849486388553801 4.40920193318622 -0.0 -0.0 -0.0 -0.0 -0.0 -0.0 -0.0 -0.0 -0.0 -0.0 -0.0 -0.0
-0.0015041776233414282 -0.0017244808109876657 0.0008998847276858176 139.71700097972982 -69.78913354290877 130.93643967079453 -0.0 -0.0 -0.0 -0.0 -0.0 -0.0 -154.4927683395204 -1.9885821169958842 4.15963509090537 -0.0 -0.0 -0.0 -0.0 -0.0 -0.0 -0.0 -0.0 -0.0 -0.0 -0.0 -0.0
-0.0015075427834693128 -0.0017313972303075215 0.0008841099078014316 138.84817374381177 -70.26577187713093 131.72742120220778 -0.0 -0.0 -0.0 -0.0 -0.0 -0.0 -146.29490129243345 -2.3184674476940654 3.4705260642166778 -0.0 -0.0 -0.0 -0.0 -0.0 -0.0 -0.0 -0.0 -0.0 -0.0 -0.0 -0.0
-0.0015131074383476545 -0.00173978917576615 0.0008660750859573957 137.7411786412418 -70.68757045104478 132.76987534578527 -0.0 -0.0 -0.0 -0.0 -0.0 -0.0 -142.1243289028278 -2.7588871917049387 3.541166505226163 -0.0 -0.0 -0.0 -0.0 -0.0 -0.0 -0.0 -0.0 -0.0 -0.0 -0.0 -0.0
-0.0015123044080961546 -0.001746043056247148 0.000858851380236 137.3414189988301 -70.85987880132004 133.15916396446931 -0.0 -0.0 -0.0 -0.0 -0.0 -0.0 -140.80522465089436 -2.909738546038548 3.562225648323377 -0.0 -0.0 -0.0 -0.0 -0.0 -0.0 -0.0 -0.0 -0.0 -0.0 -0.0 -0.0
-0.0015122004933869335 -0.001748493018991203 0.0008600833163980187 137.35097821464436 -70.91111952811923 133.1552870149814 -0.0 -0.0 -0.0 -0.0 -0.0 -0.0 -140.9384916207227 -2.9610384830509933 3.642025297135097 -0.0 -0.0 -0.0 -0.0 -0.0 -0.0 -0.0 -0.0 -0.0 -0.0 -0.0 -0.0
-0.001511699932183749 -0.0017505021116580052 0.0008654442441765963 137.65112677907814 -70.82425679075023 132.8858133971423 -0.0 -0.0 -0.0 -0.0 -0.0 -0.0 -140.32895125395837 -3.0344194218549894 3.652071820476646 -0.0 -0.0 -0.0 -0.0 -0.0 -0.0 -0.0 -0.0 -0.0 -0.0 -0.0 -0.0
-0.0015111226087168375 -0.0017486904825975808 0.0008695948752834198 137.85355146254324 -70.77409946105512 132.70444782734933 -0.0 -0.0 -0.0 -0.0 -0.0 -0.0 -139.33179584895456 -3.128493454476689 3.634602313057551 -0.0 -0.0 -0.0 -0.0 -0.0 -0.0 -0.0 -0.0 -0.0 -0.0 -0.0 -0.0
-0.0015087997864310276 -0.0017477789304277697 0.0008795255332499535 138.28249206418172 -70.73403694075739 132.3111205619089 -0.0 -0.0 -0.0 -0.0 -0.0 -0.0 -139.1576771902252 -3.2930276974788826 3.801631437146355 -0.0 -0.0 -0.0 -0.0 -0.0 -0.0 -0.0 -0.0 -0.0 -0.0 -0.0 -0.0
-0.0015032695651276803 -0.001745065250761171 0.0008926936819648501 138.8247617294656 -70.58720769217003 131.81835873653097 -0.0 -0.0 -0.0 -0.0 -0.0 -0.0 -140.33692885061714 -3.130573337366229 3.7684210970979684 -0.0 -0.0 -0.0 -0.0 -0.0 -0.0 -0.0 -0.0 -0.0 -0.0 -0.0 -0.0
-0.0015013408986682942 -0.0017436689164213052 0.0008996897743538656 139.2420096701558 -70.45042662716406 131.43565174735437 -0.0 -0.0 -0.0 -0.0 -0.0 -0.0 -141.38310414806955 -2.9040593397701753 3.629234880261257 -0.0 -0.0 -0.0 -0.0 -0.0 -0.0 -0.0 -0.0 -0.0 -0.0 -0.0 -0.0
-0.001499580595745687 -0.001743656561594463 0.0009070244083553283 139.6400693541168 -70.31692548284386 131.0695235143481 -0.0 -0.0 -0.0 -0.0 -0.0 -0.0 -141.7289579294584 -2.6087438291111997 3.301874773118244 -0.0 -0.0 -0.0 -0.0 -0.0 -0.0 -0.0 -0.0 -0.0 -0.0 -0.0 -0.0
-0.0014987060082301289 -0.0017442611038228947 0.0009112342224444432 139.88232688818965 -70.24028886514184 130.85230454192066 -0.0 -0.0 -0.0 -0.0 -0.0 -0.0 -141.39729354748644 -2.399317698111524 3.0016548235208895 -0.0 -0.0 -0.0 -0.0 -0.0 -0.0 -0.0 -0.0 -0.0 -0.0 -0.0 -0.0
-0.0014979205179542177 -0.0017428039443959065 0.0009122059568606182 140.16139720696594 -70.17506831166999 130.59598045290937 -0.0 -0.0 -0.0 -0.0 -0.0 -0.0 -139.48027334233205 -2.3590629002811534 2.7572726114132506 -0.0 -0.0 -0.0 -0.0 -0.0 -0.0 -0.0 -0.0 -0.0 -0.0 -0.0 -0.0
-0.0014967112729673557 -0.0017431038943318332 0.0009107304313620376 140.59414831758443 -70.1325986338788 130.18050008116936 -0.0 -0.0 -0.0 -0.0 -0.0 -0.0 -135.7434194604343 -2.8256357898144415 2.896285028652513 -0.0 -0.0 -0.0 -0.0 -0.0 -0.0 -0.0 -0.0 -0.0 -0.0 -0.0 -0.0
-0.0014957837774348694 -0.0017471706552554909 0.0009055526836730068 140.66659876522283 -70.20346624054375 130.1085765445787 -0.0 -0.0 -0.0 -0.0 -0.0 -0.0 -136.2953797062728 -3.0136732521137763 3.148493143073693 -0.0 -0.0 -0.0 -0.0 -0.0 -0.0 -0.0 -0.0 -0.0 -0.0 -0.0 -0.0
-0.0014962796493630083 -0.0017562350742669481 0.0008918990891147874 140.3344984729665 -70.51206118139758 130.40535610005193 -0.0 -0.0 -0.0 -0.0 -0.0 -0.0 -131.74260027522143 -3.3375472100092685 2.973743435964136 -0.0 -0.0 -0.0 -0.0 -0.0 -0.0 -0.0 -0.0 -0.0 -0.0 -0.0 -0.0
-0.00149669593602965 -0.0017600402401082267 0.0008845896245021743 140.6756277989256 -70.75681561388902 130.0258423218073 -0.0 -0.0 -0.0 -0.0 -0.0 -0.0 -130.6733058794203 -3.834160353079942 3.2887164943195293 -0.0 -0.0 -0.0 -0.0 -0.0 -0.0 -0.0 -0.0 -0.0 -0.0 -0.0 -0.0
-0.001498350239496053 -0.0017616405355424503 0.0008811367911240431 140.9213207626386 -70.87987246602573 129.76194324558358 -0.0 -0.0 -0.0 -0.0 -0.0 -0.0 -130.16446067852561 -4.547765606108651 3.8285894406118928 -0.0 -0.0 -0.0 -0.0 -0.0 -0.0 -0.0 -0.0 -0.0 -0.0 -0.0 -0.0
-0.001499326987021704 -0.0017634853184519375 0.0008779235215652851 140.9473738409157 -70.98247857835425 129.7234209279281 -0.0 -0.0 -0.0 -0.0 -0.0 -0.0 -130.56973933198927 -4.977425072599816 4.248449696712807 -0.0 -0.0 -0.0 -0.0 -0.0 -0.0 -0.0 -0.0 -0.0 -0.0 -0.0 -0.0
